<svg id="icons" xmlns="http://www.w3.org/2000/svg" viewBox="0 0 128 128"><defs><style>.Graphic-Style-10,.cls-5{fill:none;stroke:#493555;stroke-linecap:round;stroke-linejoin:round;}.Graphic-Style-10{stroke-width:6px;}.cls-1{fill:#edf2f4;}.cls-2{fill:#726d77;}.Graphic-Style-9,.cls-6{fill:#493555;}.Graphic-Style-9{opacity:0.24;}.cls-3{fill:#fff;}.cls-4{fill:#ff6c65;}.cls-5{stroke-width:2px;}</style></defs><title>calendar</title><path class="Graphic-Style-10" d="M103,29H95V24a3,3,0,0,0-6,0v5H39V24a3,3,0,0,0-6,0v5H25a4,4,0,0,0-4,4v70a4,4,0,0,0,4,4h78a4,4,0,0,0,4-4V33A4,4,0,0,0,103,29Z"/><g id="_Group_" data-name="&lt;Group&gt;"><polygon class="cls-1" points="107 91 91 107 91 91 107 91"/><path class="cls-2" d="M107,91v12a4,4,0,0,1-4,4H91Z"/><path class="cls-1" d="M39,29v5a3,3,0,0,1-6,0V24a3,3,0,0,1,6,0Z"/><path class="Graphic-Style-9" d="M36,33a3,3,0,0,1-3-3v4a3,3,0,0,0,6,0V30A3,3,0,0,1,36,33Z"/><path class="cls-1" d="M95,29v5a3,3,0,0,1-6,0V24a3,3,0,0,1,6,0Z"/><path class="cls-3" d="M107,45V91H91v16H25a4,4,0,0,1-4-4V45Z"/><path class="Graphic-Style-9" d="M21,99v4a4,4,0,0,0,4,4H91v-4H25A4,4,0,0,1,21,99Z"/><path class="cls-4" d="M107,33V45H21V33a4,4,0,0,1,4-4h8v5a3,3,0,0,0,6,0V29H89v5a3,3,0,0,0,6,0V29h8A4,4,0,0,1,107,33Z"/><path class="Graphic-Style-9" d="M107,103a4,4,0,0,1-4,4H91l4-4Z"/><rect class="Graphic-Style-9" x="21" y="41" width="86" height="4"/><polygon class="Graphic-Style-9" points="107 47 21 49 21 45 107 45 107 47"/><path class="Graphic-Style-9" d="M92,33a3,3,0,0,1-3-3v4a3,3,0,0,0,6,0V30A3,3,0,0,1,92,33Z"/><line class="cls-5" x1="89" y1="29" x2="39" y2="29"/><path class="cls-5" d="M95,29h8a4,4,0,0,1,4,4v70a4,4,0,0,1-4,4H25a4,4,0,0,1-4-4V33a4,4,0,0,1,4-4h8"/><line class="cls-5" x1="21" y1="45" x2="107" y2="45"/><path class="cls-5" d="M39,29v5a3,3,0,0,1-6,0V24a3,3,0,0,1,6,0Z"/><path class="cls-5" d="M95,29v5a3,3,0,0,1-6,0V24a3,3,0,0,1,6,0Z"/><polygon class="cls-5" points="107 91 91 107 91 91 107 91"/></g><path class="cls-6" d="M63,88.407H40.209V82.821l7.67-7.756q3.287-3.437,4.3-4.694a10.3,10.3,0,0,0,1.407-2.159,4.644,4.644,0,0,0,.4-1.891,2.46,2.46,0,0,0-.795-1.934,3.244,3.244,0,0,0-2.234-.709,6.1,6.1,0,0,0-3,.849,21.544,21.544,0,0,0-3.427,2.5l-4.662-5.457a25.144,25.144,0,0,1,4.082-3.1,14.6,14.6,0,0,1,3.6-1.429,17.791,17.791,0,0,1,4.372-.494,13.184,13.184,0,0,1,5.446,1.074,8.533,8.533,0,0,1,3.717,3.062A7.875,7.875,0,0,1,62.4,65.14a11.468,11.468,0,0,1-1.891,6.5,21.323,21.323,0,0,1-2.567,3.19q-1.6,1.676-6.821,6.359V81.4H63Z"/><path class="cls-6" d="M80.266,67.825a9.6,9.6,0,0,1,4.887,1.257,8.7,8.7,0,0,1,3.395,3.556,11.208,11.208,0,0,1,1.215,5.307q0,5.265-3.17,8.078T77,88.837a20.528,20.528,0,0,1-8.98-1.7V80.179A22.557,22.557,0,0,0,72.241,81.6a17.894,17.894,0,0,0,4.05.559,5.754,5.754,0,0,0,3.631-1A3.537,3.537,0,0,0,81.189,78.2,3.374,3.374,0,0,0,79.9,75.388a6.291,6.291,0,0,0-3.91-1.01,14.073,14.073,0,0,0-4.318.752l-3.115-1.547L69.738,57H87.656v7.068h-10.7l-.387,4.146a19.238,19.238,0,0,1,2.385-.354Q79.664,67.825,80.266,67.825Z"/></svg>