<svg id="icons" xmlns="http://www.w3.org/2000/svg" viewBox="0 0 128 128"><defs><style>.Graphic-Style-10,.cls-5{fill:none;stroke:#493555;stroke-linecap:round;stroke-linejoin:round;}.Graphic-Style-10{stroke-width:6px;}.Graphic-Style-3{fill:#ff6c65;}.cls-1{fill:#fff;}.cls-2,.cls-4{opacity:0.24;}.cls-3,.cls-4{fill:#493555;}.cls-5{stroke-width:2px;}</style></defs><title>candy-canes</title><path class="Graphic-Style-10" d="M19.389,74.027A5.163,5.163,0,1,0,26.8,66.843a12.152,12.152,0,0,1,0-17.091c.139-.14.291-.281.443-.421a11.757,11.757,0,0,1,9.7-2.9c.127.018.242.037.364.061A12.536,12.536,0,0,1,44.027,50L86.221,92.484A5.162,5.162,0,0,0,93.5,85.16L51.423,42.8a22.92,22.92,0,0,0-13.054-6.563,21.968,21.968,0,0,0-18.843,6.188l-.224.226a22.562,22.562,0,0,0,.087,31.375Z"/><path class="Graphic-Style-3" d="M78.951,85.165l7.27,7.319A5.162,5.162,0,0,0,93.5,85.16l-5.184-5.219Z"/><polygon class="Graphic-Style-3" points="57.123 63.189 68.037 74.177 77.398 68.953 66.484 57.964 57.123 63.189"/><path class="Graphic-Style-3" d="M38.369,36.238,36.945,46.426A12.539,12.539,0,0,1,44.027,50l2.183,2.2,9.361-5.224L51.423,42.8A22.92,22.92,0,0,0,38.369,36.238Z"/><path class="Graphic-Style-3" d="M13.216,61.415l10.192-1.434A12.149,12.149,0,0,1,26.8,49.751l-7.276-7.325-.224.226A22.516,22.516,0,0,0,13.216,61.415Z"/><polygon class="cls-1" points="68.037 74.177 78.951 85.165 88.312 79.941 77.398 68.953 68.037 74.177"/><polygon class="cls-1" points="46.209 52.201 57.123 63.189 66.484 57.964 55.57 46.976 46.209 52.201"/><path class="cls-1" d="M19.526,42.426,26.8,49.751c.139-.14.291-.281.443-.421a11.757,11.757,0,0,1,9.7-2.9l1.424-10.188A21.968,21.968,0,0,0,19.526,42.426Z"/><path class="cls-1" d="M19.389,74.027A5.163,5.163,0,1,0,26.8,66.843a12.084,12.084,0,0,1-3.4-6.861L13.216,61.415A22.373,22.373,0,0,0,19.389,74.027Z"/><g class="cls-2"><path class="cls-3" d="M26.392,68.546a5.233,5.233,0,0,1-7-.519,22.373,22.373,0,0,1-6.173-12.611c-.006-.041-.008-.083-.014-.124a22.7,22.7,0,0,0,.014,6.124,22.373,22.373,0,0,0,6.173,12.611,5.148,5.148,0,0,0,7.947-6.518A5.171,5.171,0,0,1,26.392,68.546Z"/><path class="cls-3" d="M94.04,85.815a5.053,5.053,0,0,1-7.819.669L44.027,44a12.536,12.536,0,0,0-6.718-3.516c-.121-.024-.236-.043-.364-.061a11.757,11.757,0,0,0-9.7,2.9c-.152.14-.3.281-.443.421a12.019,12.019,0,0,0-3.121,11.569A12,12,0,0,1,26.8,49.751c.139-.14.291-.281.443-.421a11.757,11.757,0,0,1,9.7-2.9c.127.018.242.037.364.061A12.536,12.536,0,0,1,44.027,50L86.221,92.484a5.159,5.159,0,0,0,8.172-6.1A5.015,5.015,0,0,0,94.04,85.815Z"/><path class="cls-4" d="M26.392,68.546a5.233,5.233,0,0,1-7-.519,22.373,22.373,0,0,1-6.173-12.611c-.006-.041-.008-.083-.014-.124a22.7,22.7,0,0,0,.014,6.124,22.373,22.373,0,0,0,6.173,12.611,5.148,5.148,0,0,0,7.947-6.518A5.171,5.171,0,0,1,26.392,68.546Z"/><path class="cls-4" d="M94.04,85.815a5.053,5.053,0,0,1-7.819.669L44.027,44a12.536,12.536,0,0,0-6.718-3.516c-.121-.024-.236-.043-.364-.061a11.757,11.757,0,0,0-9.7,2.9c-.152.14-.3.281-.443.421a12.019,12.019,0,0,0-3.121,11.569A12,12,0,0,1,26.8,49.751c.139-.14.291-.281.443-.421a11.757,11.757,0,0,1,9.7-2.9c.127.018.242.037.364.061A12.536,12.536,0,0,1,44.027,50L86.221,92.484a5.159,5.159,0,0,0,8.172-6.1A5.015,5.015,0,0,0,94.04,85.815Z"/></g><path class="cls-5" d="M19.389,74.027A5.163,5.163,0,1,0,26.8,66.843a12.152,12.152,0,0,1,0-17.091c.139-.14.291-.281.443-.421a11.757,11.757,0,0,1,9.7-2.9c.127.018.242.037.364.061A12.536,12.536,0,0,1,44.027,50L86.221,92.484A5.162,5.162,0,0,0,93.5,85.16L51.423,42.8a22.92,22.92,0,0,0-13.054-6.563,21.968,21.968,0,0,0-18.843,6.188l-.224.226a22.562,22.562,0,0,0,.087,31.375Z"/><line class="cls-5" x1="19.526" y1="42.426" x2="26.802" y2="49.751"/><line class="cls-5" x1="23.408" y1="59.982" x2="13.216" y2="61.415"/><line class="cls-5" x1="38.369" y1="36.238" x2="36.945" y2="46.426"/><line class="cls-5" x1="55.57" y1="46.976" x2="46.209" y2="52.201"/><line class="cls-5" x1="66.484" y1="57.964" x2="57.123" y2="63.189"/><line class="cls-5" x1="77.398" y1="68.953" x2="68.037" y2="74.177"/><line class="cls-5" x1="88.312" y1="79.941" x2="78.951" y2="85.165"/><path class="Graphic-Style-10" d="M113.665,58.483a5.238,5.238,0,0,1-6.248,3.144,5.131,5.131,0,0,1-3.3-6.886,11.969,11.969,0,0,0-6.471-15.626c-.181-.075-.374-.146-.567-.216a11.764,11.764,0,0,0-10.028,1.042c-.11.065-.209.126-.312.194a12.515,12.515,0,0,0-4.851,5.776L59.147,100.835a5.121,5.121,0,0,1-9.466,0,5.133,5.133,0,0,1,0-3.922l22.68-54.766A22.888,22.888,0,0,1,81.886,31.17a21.974,21.974,0,0,1,19.685-1.526l.292.121a22.223,22.223,0,0,1,11.8,28.718Z"/><path class="cls-1" d="M63.066,91.372l-3.919,9.463a5.125,5.125,0,0,1-9.469-3.923l2.795-6.748Z"/><polygon class="cls-1" points="74.832 62.959 68.949 77.166 58.356 75.958 64.239 61.751 74.832 62.959"/><path class="cls-1" d="M81.886,31.17l5.169,8.771a12.521,12.521,0,0,0-5.163,5.97l-1.177,2.841L70.122,47.545l2.236-5.4A22.888,22.888,0,0,1,81.886,31.17Z"/><path class="cls-1" d="M114.57,44.6l-9.922,2.574a11.973,11.973,0,0,0-7-8.059l3.922-9.471.292.121A22.188,22.188,0,0,1,114.57,44.6Z"/><polygon class="Graphic-Style-3" points="68.949 77.166 63.066 91.372 52.472 90.164 58.356 75.958 68.949 77.166"/><polygon class="Graphic-Style-3" points="80.716 48.753 74.832 62.959 64.239 61.751 70.122 47.545 80.716 48.753"/><path class="Graphic-Style-3" d="M101.571,29.644l-3.922,9.471c-.181-.075-.374-.146-.567-.216a11.764,11.764,0,0,0-10.028,1.042L81.886,31.17A21.974,21.974,0,0,1,101.571,29.644Z"/><path class="Graphic-Style-3" d="M113.664,58.483a5.238,5.238,0,0,1-6.248,3.144,5.131,5.131,0,0,1-3.3-6.886,11.928,11.928,0,0,0,.527-7.567L114.57,44.6A22.083,22.083,0,0,1,113.664,58.483Z"/><path class="cls-4" d="M95.649,35.115c-.181-.075-.374-.146-.567-.216a11.764,11.764,0,0,0-10.028,1.042c-.11.065-.209.126-.312.194a12.515,12.515,0,0,0-4.851,5.776L57.147,96.835a5.059,5.059,0,0,1-7.855,2.079,5.122,5.122,0,0,0,9.855,1.921L81.892,45.911a12.515,12.515,0,0,1,4.851-5.776c.1-.069.2-.129.312-.194A11.764,11.764,0,0,1,97.082,38.9c.193.071.385.141.567.216a11.856,11.856,0,0,1,4.923,3.825A11.958,11.958,0,0,0,95.649,35.115Z"/><path class="cls-4" d="M114.57,44.6a22.312,22.312,0,0,0-2.732-6.3,22.165,22.165,0,0,1-.174,16.179,5.238,5.238,0,0,1-6.248,3.144,5.144,5.144,0,0,1-1.683-.862,5.126,5.126,0,0,0,3.683,4.862,5.238,5.238,0,0,0,6.248-3.144A22.083,22.083,0,0,0,114.57,44.6Z"/><path class="cls-5" d="M113.665,58.483a5.238,5.238,0,0,1-6.248,3.144,5.131,5.131,0,0,1-3.3-6.886,11.969,11.969,0,0,0-6.471-15.626c-.181-.075-.374-.146-.567-.216a11.764,11.764,0,0,0-10.028,1.042c-.11.065-.209.126-.312.194a12.515,12.515,0,0,0-4.851,5.776L59.147,100.835a5.121,5.121,0,0,1-9.466,0,5.133,5.133,0,0,1,0-3.922l22.68-54.766A22.888,22.888,0,0,1,81.886,31.17a21.974,21.974,0,0,1,19.685-1.526l.292.121a22.223,22.223,0,0,1,11.8,28.718Z"/><line class="cls-5" x1="97.649" y1="39.115" x2="101.571" y2="29.644"/><line class="cls-5" x1="114.57" y1="44.6" x2="104.647" y2="47.174"/><line class="cls-5" x1="87.055" y1="39.941" x2="81.886" y2="31.17"/><line class="cls-5" x1="80.716" y1="48.753" x2="70.122" y2="47.545"/><line class="cls-5" x1="74.832" y1="62.959" x2="64.239" y2="61.751"/><line class="cls-5" x1="68.949" y1="77.166" x2="58.356" y2="75.958"/><line class="cls-5" x1="63.066" y1="91.372" x2="52.472" y2="90.164"/></svg>