<svg id="icons" xmlns="http://www.w3.org/2000/svg" viewBox="0 0 128 128"><defs><style>.Graphic-Style-10,.cls-4{fill:none;stroke:#493555;stroke-linecap:round;stroke-linejoin:round;}.Graphic-Style-10{stroke-width:6px;}.cls-1{fill:#f4b86f;}.cls-2{fill:#ffeb73;}.cls-3{fill:#493555;opacity:0.24;}.cls-4{stroke-width:2px;}</style></defs><title>jingle-bell</title><path class="Graphic-Style-10" d="M99.77,78.58c-.51-.38-1.03-.78-1.57-1.2C90.04,71,78.9,60.03,72.4,44.11a24.115,24.115,0,0,0-22.35-15.1,12.245,12.245,0,0,0-.33-8.46,11.993,11.993,0,0,0-15.75-6.62,12.293,12.293,0,0,0-6.52,15.98,12.058,12.058,0,0,0,5.67,6.22,24.69,24.69,0,0,0-5.28,26.69c6.5,15.93,6.28,31.68,4.96,42.03-.09.68-.18,1.34-.27,1.97a5.534,5.534,0,0,0,7.58,5.98l9.74-4.09a10.01,10.01,0,0,0,13.13,5.51,10.246,10.246,0,0,0,5.44-13.31l.92-.39L98.58,88.24A5.629,5.629,0,0,0,99.77,78.58ZM33.02,27.57a6.145,6.145,0,0,1,3.26-7.99,6,6,0,0,1,7.87,3.31,6.148,6.148,0,0,1-3.26,7.99A6,6,0,0,1,33.02,27.57Z"/><g id="_Group_" data-name="&lt;Group&gt;"><path class="cls-1" d="M49.72,20.55a12.245,12.245,0,0,1,.33,8.46,23.784,23.784,0,0,0-9.16,1.87,6.148,6.148,0,0,0,3.26-7.99,6,6,0,0,0-7.87-3.31,6.145,6.145,0,0,0-3.26,7.99,6,6,0,0,0,7.87,3.31,23.85,23.85,0,0,0-7.77,5.25,12.058,12.058,0,0,1-5.67-6.22,12.293,12.293,0,0,1,6.52-15.98A11.993,11.993,0,0,1,49.72,20.55Z"/><path class="cls-2" d="M68.42,100.91a10.246,10.246,0,0,1-5.44,13.31,10.01,10.01,0,0,1-13.13-5.51Z"/><path class="cls-3" d="M62.98,110.22a9.961,9.961,0,0,1-11.093-2.365l-2.037.855a10.01,10.01,0,0,0,13.13,5.51,10.226,10.226,0,0,0,6.005-11.414A10.149,10.149,0,0,1,62.98,110.22Z"/><path class="cls-1" d="M99.77,78.58a5.629,5.629,0,0,1-1.19,9.66L69.34,100.52l-.92.39-18.57,7.8-9.74,4.09a5.534,5.534,0,0,1-7.58-5.98c.09-.63.18-1.29.27-1.97L98.2,77.38C98.74,77.8,99.26,78.2,99.77,78.58Z"/><path class="cls-2" d="M98.2,77.38,32.8,104.85c1.32-10.35,1.54-26.1-4.96-42.03a24.69,24.69,0,0,1,5.28-26.69,23.989,23.989,0,0,1,16.93-7.12A24.115,24.115,0,0,1,72.4,44.11C78.9,60.03,90.04,71,98.2,77.38Z"/><path class="cls-3" d="M98.58,84.24,69.34,96.52l-.92.39-18.57,7.8-9.74,4.09a5.51,5.51,0,0,1-7.379-3.446c-.067.5-.134,1-.2,1.466a5.534,5.534,0,0,0,7.58,5.98l9.74-4.09,18.57-7.8.92-.39L98.58,88.24a5.636,5.636,0,0,0,3.052-7.186A5.492,5.492,0,0,1,98.58,84.24Z"/><path class="cls-4" d="M50.05,29.01a12.245,12.245,0,0,0-.33-8.46,11.993,11.993,0,0,0-15.75-6.62,12.293,12.293,0,0,0-6.52,15.98,12.058,12.058,0,0,0,5.67,6.22"/><path class="cls-4" d="M40.89,30.88a6,6,0,0,1-7.87-3.31,6.145,6.145,0,0,1,3.26-7.99,6,6,0,0,1,7.87,3.31A6.148,6.148,0,0,1,40.89,30.88Z"/><path class="cls-4" d="M40.89,30.88a23.784,23.784,0,0,1,9.16-1.87A24.115,24.115,0,0,1,72.4,44.11C78.9,60.03,90.04,71,98.2,77.38c.54.42,1.06.82,1.57,1.2a5.629,5.629,0,0,1-1.19,9.66L69.34,100.52l-.92.39-18.57,7.8-9.74,4.09a5.534,5.534,0,0,1-7.58-5.98c.09-.63.18-1.29.27-1.97,1.32-10.35,1.54-26.1-4.96-42.03a24.69,24.69,0,0,1,5.28-26.69,23.85,23.85,0,0,1,7.77-5.25"/><path class="cls-4" d="M49.85,108.71a10.01,10.01,0,0,0,13.13,5.51,10.246,10.246,0,0,0,5.44-13.31"/><line class="cls-4" x1="98.2" y1="77.38" x2="32.8" y2="104.85"/></g></svg>