<svg id="icons" xmlns="http://www.w3.org/2000/svg" viewBox="0 0 128 128"><defs><style>.Graphic-Style-10,.cls-8{fill:none;stroke:#493555;stroke-linecap:round;stroke-linejoin:round;}.Graphic-Style-10{stroke-width:6px;}.cls-1{fill:#726d77;}.cls-2{fill:#ff6c65;}.cls-3,.cls-6{fill:#493555;}.cls-3,.cls-7{opacity:0.24;}.cls-4{fill:#f4b86f;}.cls-5{fill:#fff;}.cls-8{stroke-width:2px;}</style></defs><title>snowman</title><path class="Graphic-Style-10" d="M81.22,64.92l-2.87-7.06a17.981,17.981,0,0,0-4.95-26.2c4.61-3.09,7.22-6.08,6.47-7.91-.84-2.06-5.66-2.13-12.11-.53L59.59,13,46.94,18.29l1.39,13.05c-5.68,3.47-9.04,6.97-8.2,9.02.58,1.41,3.04,1.88,6.62,1.52A17.662,17.662,0,0,0,46,47a17.908,17.908,0,0,0,3.65,10.86l-2.87,7.06a28,28,0,1,0,34.44,0Z"/><g id="_Group_" data-name="&lt;Group&gt;"><circle class="cls-1" cx="64" cy="102" r="3"/><circle class="cls-1" cx="64" cy="90" r="3"/><circle class="cls-1" cx="64" cy="78" r="3"/><path class="cls-2" d="M77.93,67.31,83,76l-4.26,1.83-3.92-8.95A24.456,24.456,0,0,0,77.93,67.31Z"/><path class="cls-3" d="M77.93,67.31,83,76l-4.26,1.83-3.92-8.95A24.456,24.456,0,0,0,77.93,67.31Z"/><path class="cls-2" d="M78.74,77.83,81,83l-8,2L68.77,70.6a26.256,26.256,0,0,0,6.05-1.72Z"/><path class="cls-2" d="M78.35,57.86l2.87,7.06a21.167,21.167,0,0,1-3.29,2.39,24.456,24.456,0,0,1-3.11,1.57,26.256,26.256,0,0,1-6.05,1.72A27.664,27.664,0,0,1,64,71a26.049,26.049,0,0,1-17.22-6.08l2.87-7.06a17.99,17.99,0,0,0,28.7,0Z"/><path class="cls-4" d="M74,54.5l-9.45-.94a3,3,0,0,1-2.43-3.83c.01-.03.01-.05.02-.08.02-.07.04-.13.06-.19a2.682,2.682,0,0,1,4.32-1.31Z"/><path class="cls-5" d="M60,44a2,2,0,1,0-2,2A2.006,2.006,0,0,0,60,44ZM46.75,41.88a57.856,57.856,0,0,0,15.5-4.36A65.609,65.609,0,0,0,73.4,31.66,17.992,17.992,0,1,1,46,47,17.662,17.662,0,0,1,46.75,41.88Zm17.8,11.68L74,54.5l-7.48-6.35a2.682,2.682,0,0,0-4.32,1.31c-.02.06-.04.12-.06.19-.01.03-.01.05-.02.08A3,3,0,0,0,64.55,53.56ZM72,44a2,2,0,1,0-2,2A2.006,2.006,0,0,0,72,44Z"/><path class="cls-5" d="M81.22,64.92a28,28,0,1,1-34.44,0A26.049,26.049,0,0,0,64,71a27.664,27.664,0,0,0,4.77-.4L73,85l8-2-2.26-5.17L83,76l-5.07-8.69A21.167,21.167,0,0,0,81.22,64.92ZM67,78a3,3,0,1,0-3,3A3,3,0,0,0,67,78Zm0,12a3,3,0,1,0-3,3A3,3,0,0,0,67,90Zm0,12a3,3,0,1,0-3,3A3,3,0,0,0,67,102Z"/><path class="cls-3" d="M64,68a22.346,22.346,0,0,0,15.9-6.321L78.35,57.86a17.99,17.99,0,0,1-28.7,0L48.1,61.679A22.346,22.346,0,0,0,64,68Z"/><path class="cls-3" d="M78.35,53.86A17.986,17.986,0,0,1,46.123,45,17.994,17.994,0,1,0,82,47a18.12,18.12,0,0,0-.121-2.022A17.9,17.9,0,0,1,78.35,53.86Z"/><circle class="cls-6" cx="70" cy="44" r="2"/><circle class="cls-6" cx="58" cy="44" r="2"/><path class="cls-1" d="M79.87,23.75c.75,1.83-1.86,4.82-6.47,7.91a65.609,65.609,0,0,1-11.15,5.86,57.856,57.856,0,0,1-15.5,4.36c-3.58.36-6.04-.11-6.62-1.52-.84-2.05,2.52-5.55,8.2-9.02l.46,4.33s3.45.69,11.58-2.7,10.1-6.36,10.1-6.36l-2.71-3.39C74.21,21.62,79.03,21.69,79.87,23.75Z"/><path class="cls-1" d="M67.76,23.22l2.71,3.39s-1.97,2.96-10.1,6.36-11.58,2.7-11.58,2.7l-.46-4.33L46.94,18.29,59.59,13Z"/><path class="cls-3" d="M76.09,33.68c-.79.65-1.69,1.31-2.69,1.98a65.609,65.609,0,0,1-11.15,5.86c-.95.39-1.88.76-2.81,1.1-1.17.44-2.31.84-3.43,1.19a46.875,46.875,0,0,1-9.26,2.07q-.375.045-.72.06a17.429,17.429,0,0,1,.72-4.06,57.857,57.857,0,0,0,15.5-4.36A65.609,65.609,0,0,0,73.4,31.66,17.671,17.671,0,0,1,76.09,33.68Z"/><g class="cls-7"><path class="cls-6" d="M64,111A28,28,0,0,1,36.079,84.995C36.032,85.658,36,86.325,36,87a28,28,0,0,0,56,0c0-.675-.032-1.342-.079-2.005A28,28,0,0,1,64,111Z"/><path class="cls-3" d="M64,111A28,28,0,0,1,36.079,84.995C36.032,85.658,36,86.325,36,87a28,28,0,0,0,56,0c0-.675-.032-1.342-.079-2.005A28,28,0,0,1,64,111Z"/></g><path class="cls-8" d="M81.22,64.92a28,28,0,1,1-34.44,0"/><path class="cls-8" d="M73.4,31.66A17.992,17.992,0,1,1,46,47a17.662,17.662,0,0,1,.75-5.12"/><path class="cls-8" d="M48.33,31.34l.46,4.33s3.45.69,11.58-2.7,10.1-6.36,10.1-6.36l-2.71-3.39L59.59,13,46.94,18.29Z"/><path class="cls-8" d="M67.75,23.22h.01c6.45-1.6,11.27-1.53,12.11.53.75,1.83-1.86,4.82-6.47,7.91a65.609,65.609,0,0,1-11.15,5.86,57.856,57.856,0,0,1-15.5,4.36c-3.58.36-6.04-.11-6.62-1.52-.84-2.05,2.52-5.55,8.2-9.02"/><circle class="cls-8" cx="64" cy="102" r="3"/><circle class="cls-8" cx="64" cy="90" r="3"/><circle class="cls-8" cx="64" cy="78" r="3"/><path class="cls-8" d="M66.52,48.15,74,54.5l-9.45-.94a3,3,0,0,1-2.43-3.83c.01-.03.01-.05.02-.08.02-.07.04-.13.06-.19A2.682,2.682,0,0,1,66.52,48.15Z"/><path class="cls-8" d="M64,58s-5,0-7-4"/><path class="cls-8" d="M78.35,57.86l2.87,7.06a21.167,21.167,0,0,1-3.29,2.39,24.456,24.456,0,0,1-3.11,1.57,26.256,26.256,0,0,1-6.05,1.72A27.664,27.664,0,0,1,64,71a26.049,26.049,0,0,1-17.22-6.08l2.87-7.06"/><polyline class="cls-8" points="77.93 67.31 83 76 78.74 77.83"/><polyline class="cls-8" points="68.77 70.6 73 85 81 83 78.74 77.83 74.82 68.88"/></g></svg>